Fly_normalized_Motion_pl06
version=1
nRows=10
nColumns=43
inDegrees=yes
endheader
time		pelvis_tilt		pelvis_list		pelvis_rotation		pelvis_tx		pelvis_ty		pelvis_tz		hip_flexion_r		hip_adduction_r		hip_rotation_r		knee_angle_r		ankle_angle_r		subtalar_angle_r		mtp_angle_r		hip_flexion_l		hip_adduction_l		hip_rotation_l		knee_angle_l		ankle_angle_l		subtalar_angle_l		mtp_angle_l		lumbar_extension		lumbar_bending		lumbar_rotation		neck_flexion		neck_lateral_bending		neck_rotation		arm_flex_r		arm_add_r		arm_rot_r		elbow_flex_r		pro_sup_r		wrist_flex_r		wrist_dev_r		hand_finger_flex_r		arm_flex_l		arm_add_l		arm_rot_l		elbow_flex_l		pro_sup_l		wrist_flex_l		wrist_dev_l		hand_finger_flex_l		
0.562500		4.021824		-24.160235		92.508046		0.005128		1.757730		1.490737		66.577474		-14.037333		0.631292		-125.962692		-30.886412		-14.165754		-1.044656		65.833613		-8.274710		6.443795		-124.984586		-22.557469		-15.550810		-16.902313		-25.318997		1.762603		-2.103424		19.701680		3.105232		6.740234		117.594386		-19.439842		47.200086		59.723555		73.483013		-31.237121		-10.133211		51.580583		133.245678		-25.053527		75.641109		65.082570		80.179487		-39.974899		10.632992		75.561481		
0.566591		4.005654		-23.663554		92.523923		0.004946		1.758225		1.482755		66.622184		-14.012061		0.588094		-125.907585		-31.975314		-14.431522		-1.464512		65.916476		-8.212157		6.482662		-124.755265		-24.517794		-14.940241		-17.224630		-25.756954		1.828560		-2.022575		19.382495		2.773082		6.695208		117.239259		-19.402997		47.153696		59.290186		73.760492		-31.333858		-10.003199		51.554497		133.164798		-25.218934		76.119902		64.840653		80.627419		-39.888635		10.747686		75.557667		
0.570682		4.148500		-23.128299		92.649466		0.004749		1.758780		1.474899		66.609583		-13.961901		0.112431		-125.801388		-33.338781		-16.431295		-3.016887		66.029821		-8.191323		6.557885		-124.557825		-26.271178		-15.285736		-18.175178		-26.337864		2.121783		-2.138360		19.444144		2.370889		6.853826		116.818205		-18.943163		46.663008		58.672456		74.981093		-31.440827		-9.817966		51.579438		133.221068		-25.843412		76.557812		64.962472		82.137698		-39.793949		10.961036		75.656968		
0.574773		4.142871		-22.716399		92.638269		0.004678		1.758820		1.467183		66.824745		-13.884384		0.013725		-125.849220		-33.439015		-16.633258		-3.362462		66.281114		-8.176844		6.550895		-124.377935		-27.572933		-14.585644		-18.582498		-26.736436		2.171358		-2.024625		19.333048		2.105915		6.693815		116.419085		-18.902068		46.547248		58.164460		75.193063		-31.472908		-9.673047		51.573361		133.091276		-26.026264		76.954917		64.707119		82.605372		-39.763223		11.039737		75.673479		
0.578864		4.322879		-22.374499		92.736450		0.004658		1.758596		1.459592		67.092873		-13.731746		-0.419157		-125.879580		-33.367443		-17.663145		-4.975724		66.685986		-8.223500		6.688250		-124.264563		-28.193355		-14.048036		-20.262914		-27.080259		2.468005		-2.076804		19.323777		1.722414		6.805311		115.818442		-18.403161		45.851380		57.444439		76.558833		-31.267267		-9.381366		51.719692		132.921049		-26.626243		77.209912		64.739956		84.476484		-39.815155		11.274238		75.983883		
0.582955		4.304527		-22.060184		92.657539		0.004699		1.758101		1.452094		67.499742		-13.578327		-0.532409		-126.015810		-32.567539		-17.889720		-5.299652		67.067967		-8.232797		6.612712		-124.118355		-28.716137		-13.253713		-20.994577		-27.390869		2.472127		-1.908222		19.232544		1.480490		6.610043		115.308316		-18.385745		45.619485		56.930467		76.920767		-31.156657		-9.133228		51.734776		132.701591		-26.829336		77.531627		64.455461		85.183300		-39.813562		11.386377		76.104766		
0.587045		4.323914		-21.854612		92.593197		0.004755		1.757307		1.444655		68.038548		-13.404212		-0.707839		-126.134813		-31.541518		-18.077202		-5.960440		67.581355		-8.262009		6.545838		-123.977322		-28.606114		-12.234296		-22.530860		-27.568087		2.512613		-1.772389		19.136003		1.242934		6.548093		114.625934		-18.248920		45.078395		56.351516		77.913946		-30.824263		-8.722682		51.795346		132.356928		-27.118899		77.742664		64.242156		86.672598		-39.858056		11.574616		76.442470		
0.591136		4.265765		-21.679824		92.431592		0.004941		1.756236		1.437274		68.683377		-13.188454		-0.787215		-126.297002		-30.335110		-18.280077		-6.160869		68.111951		-8.311592		6.389620		-123.835119		-28.260870		-11.149757		-24.084367		-27.717360		2.418467		-1.566240		19.050791		1.083060		6.357595		113.896723		-18.250277		44.543494		55.857362		78.849271		-30.426042		-8.195026		51.726216		131.994942		-27.321202		77.973901		63.950180		88.144292		-39.858641		11.737606		76.751199		
0.595227		4.172978		-21.389732		92.299912		0.004887		1.755276		1.429947		69.198144		-13.045931		-0.951498		-126.449954		-29.025367		-18.876855		-6.009758		68.529794		-8.302941		6.117820		-123.621274		-28.211296		-10.634120		-24.410755		-28.030109		2.337661		-1.346881		19.019758		0.878756		6.133136		113.391828		-18.382303		44.527717		55.262712		79.086838		-30.324067		-7.921596		51.681301		131.752295		-27.457190		78.411677		63.585713		88.693036		-39.802776		11.800597		76.800442		
0.599318		4.067809		-21.186224		92.103421		0.005191		1.753976		1.422632		69.858166		-12.863807		-1.046519		-126.603920		-27.687023		-19.414049		-5.766143		69.029213		-8.320344		5.855194		-123.438585		-27.721799		-9.713400		-24.793504		-28.225006		2.150552		-1.093603		18.976265		0.743153		5.905511		112.749064		-18.528071		44.377687		54.672428		79.569870		-30.153863		-7.533724		51.626287		131.462885		-27.618228		78.905820		63.231512		89.769611		-39.785691		11.801933		76.873024		
